<svg width="245" height="225" viewBox="0 0 245 225" fill="none" xmlns="http://www.w3.org/2000/svg">
<path d="M244.5 112.5C244.5 174.317 189.92 224.5 122.5 224.5C55.0803 224.5 0.5 174.317 0.5 112.5C0.5 50.6833 55.0803 0.5 122.5 0.5C189.92 0.5 244.5 50.6833 244.5 112.5Z" stroke="black"/>
<path d="M236.5 113C236.5 170.674 185.502 217.5 122.5 217.5C59.4979 217.5 8.5 170.674 8.5 113C8.5 55.3261 59.4979 8.5 122.5 8.5C185.502 8.5 236.5 55.3261 236.5 113Z" stroke="black"/>
<path d="M56.8422 114.241C54.9772 114.638 53.1592 114.462 51.3883 113.714C49.6609 112.994 48.1392 111.743 46.8233 109.961C45.4997 108.143 44.5406 105.835 43.946 103.038C43.359 100.276 43.1948 97.3871 43.4533 94.3707C43.7118 91.3544 44.3018 88.3988 45.2234 85.5039C46.1809 82.6014 47.3966 79.9439 48.8706 77.5314C50.3369 75.0831 51.9844 73.046 53.813 71.4203C55.6775 69.787 57.6319 68.753 59.6762 68.3185C61.7205 67.8839 63.2886 68.2067 64.3803 69.2866C65.5003 70.3231 66.228 71.6303 66.5634 73.2084C66.8302 74.4637 66.878 75.7468 66.7068 77.0577C66.528 78.3327 66.1638 79.441 65.6142 80.3825C65.0646 81.324 64.3595 81.8863 63.4987 82.0692C63.2118 82.1302 62.8878 82.1054 62.5269 81.9946C62.2019 81.8763 61.8822 81.6069 61.5679 81.1864C61.9938 80.721 62.4304 79.9534 62.8778 78.8837C63.361 77.8064 63.7138 76.6443 63.9361 75.3975C64.1943 74.1431 64.2204 73.0317 64.0146 72.0633C63.8393 71.2384 63.4434 70.6103 62.8269 70.1791C62.2463 69.7402 61.3642 69.6465 60.1807 69.8981C58.6385 70.2259 57.1579 71.1966 55.7391 72.8102C54.3561 74.4162 53.1004 76.4449 51.9721 78.8964C50.8721 81.3044 49.9689 83.933 49.2624 86.7821C48.556 89.6312 48.1121 92.4808 47.9307 95.3308C47.7852 98.1732 47.9678 100.796 48.4785 103.199C49.1723 106.463 50.395 108.864 52.1467 110.404C53.906 111.979 55.8257 112.546 57.9059 112.103C59.3047 111.806 60.5211 111.004 61.5554 109.697C62.5972 108.426 63.4308 106.881 64.0561 105.061C64.6738 103.205 65.0675 101.266 65.2373 99.243C65.443 97.2126 65.4308 95.3034 65.2007 93.5155C63.8127 93.5106 62.6986 93.56 61.8585 93.6636C61.0107 93.7314 60.2281 93.8415 59.5108 93.9939C59.0446 94.093 58.5463 94.2177 58.0159 94.3679C57.5138 94.4746 56.922 94.6004 56.2406 94.7453C56.2706 93.6518 56.5485 92.843 57.0743 92.3189C57.6284 91.7513 58.3717 91.3684 59.3042 91.1702C60.3085 90.9567 61.3867 90.915 62.5389 91.0449C63.7193 91.1314 64.8715 91.2613 65.9955 91.4348C67.1194 91.6082 68.0988 91.7187 68.9336 91.7662L68.9229 93.5677C68.5294 96.1254 68.2569 98.2826 68.1055 100.039C67.9823 101.752 67.953 103.202 68.0176 104.387C68.1105 105.53 68.2484 106.531 68.4314 107.392C68.5839 108.109 68.7504 108.805 68.9312 109.479C69.1477 110.145 69.3502 110.833 69.5385 111.543C68.5656 111.374 67.7416 111.025 67.0664 110.494C66.4347 109.991 66.0159 109.255 65.8101 108.287C65.6424 107.498 65.5926 106.646 65.6607 105.732C64.7507 107.8 63.5824 109.622 62.156 111.2C60.7295 112.778 58.9582 113.791 56.8422 114.241ZM78.77 106.375C77.5506 106.634 76.4499 106.306 75.4681 105.39C74.5144 104.431 73.8851 103.234 73.5802 101.799C73.3591 100.759 73.2651 99.5234 73.2982 98.0919C73.3672 96.6528 73.5117 95.2164 73.7318 93.7826C73.9518 92.3489 74.2393 91.1444 74.5944 90.1693C74.9494 89.1942 75.3241 88.6647 75.7187 88.5808C75.898 88.5427 76.2257 88.5855 76.7018 88.7092C77.1703 88.7971 77.5824 88.9719 77.9379 89.2337C77.673 89.9273 77.387 90.9627 77.08 92.34C76.7729 93.7172 76.5567 95.1689 76.4313 96.695C76.3058 98.2211 76.3727 99.5939 76.6319 100.813C76.6929 101.1 76.824 101.541 77.0254 102.135C77.2191 102.694 77.5089 103.176 77.895 103.581C78.281 103.986 78.7609 104.128 79.3348 104.006C80.0162 103.861 80.6432 103.372 81.2156 102.538C81.7805 101.668 82.3034 100.601 82.7844 99.3369C83.3012 98.0649 83.7631 96.711 84.1701 95.275C84.5771 93.839 84.9418 92.4682 85.264 91.1627C85.6222 89.8495 85.9147 88.7565 86.1415 87.8836C86.3643 87.8737 86.6844 87.8806 87.1018 87.9044C87.555 87.9205 87.9621 87.9839 88.323 88.0946C88.7198 88.1977 88.9525 88.4107 89.0211 88.7335C89.0516 88.8769 88.9752 89.3992 88.7919 90.3004C88.6009 91.1656 88.3802 92.2434 88.1296 93.5337C87.9073 94.7805 87.7426 96.0338 87.6356 97.2936C87.5285 98.5534 87.5702 99.6316 87.7608 100.528C87.898 101.174 88.1341 101.667 88.469 102.008C88.8398 102.342 89.348 102.44 89.9936 102.303C90.7467 102.143 91.5889 101.608 92.52 100.697C93.4511 99.7873 94.3354 98.5685 95.1727 97.041C96.0025 95.4776 96.6534 93.6899 97.1254 91.6778L97.9276 92.0134C97.5861 94.1102 96.9658 96.0414 96.0665 97.8069C95.1597 99.5366 94.1125 100.959 92.9249 102.073C91.7374 103.188 90.498 103.882 89.2069 104.157C87.7722 104.462 86.7021 104.277 85.9964 103.602C85.2983 102.963 84.8311 102.088 84.5948 100.976C84.5033 100.546 84.4477 100.108 84.4279 99.6622C84.4006 99.1807 84.3911 98.6954 84.3996 98.2063C83.7689 100.177 83.0067 101.97 82.1128 103.584C81.2472 105.155 80.1329 106.086 78.77 106.375ZM101.101 102.585C99.9893 102.821 98.9767 102.643 98.0634 102.049C97.1219 101.5 96.4911 100.472 96.1709 98.9655C95.8965 97.6744 95.8899 96.2326 96.1512 94.6401C96.4048 93.0118 96.8813 91.3736 97.5806 89.7255C98.2723 88.0416 99.12 86.4744 100.124 85.024C101.156 83.5302 102.295 82.2759 103.541 81.2613C104.823 80.2391 106.164 79.5793 107.562 79.282C108.961 78.9846 110.207 79.1135 111.299 79.6684C112.384 80.1875 113.056 81.0568 113.316 82.2762C113.506 83.1729 113.385 83.8359 112.951 84.2655C112.554 84.6873 111.96 84.9821 111.171 85.1499C111.213 84.4662 111.17 83.8195 111.04 83.2098C110.865 82.3849 110.519 81.7274 110.002 81.2374C109.478 80.7116 108.732 80.5515 107.764 80.7574C106.759 80.9708 105.813 81.5468 104.926 82.4851C104.031 83.3877 103.224 84.5336 102.508 85.923C101.783 87.2765 101.189 88.7148 100.726 90.2378C100.262 91.7608 99.9565 93.2315 99.8081 94.65C99.6598 96.0685 99.6962 97.2978 99.9173 98.3379C100.215 99.7366 100.847 100.333 101.816 100.127C102.641 99.9519 103.457 99.3848 104.266 98.4258C105.066 97.4309 105.843 96.2349 106.596 94.8379C107.376 93.3974 108.096 91.9325 108.754 90.4431C109.412 88.9538 109.985 87.5949 110.474 86.3664C110.572 86.1207 110.638 85.9941 110.674 85.9865C111.005 85.9537 111.466 86.0057 112.057 86.1424C112.641 86.2432 112.974 86.4909 113.058 86.8854C113.127 87.2082 113.061 87.6909 112.86 88.3333C112.652 88.9399 112.426 89.6438 112.184 90.445C111.942 91.2461 111.74 92.0576 111.577 92.8794C111.407 93.6653 111.39 94.381 111.528 95.0266C111.642 95.5646 111.9 96.0721 112.301 96.5491C112.695 96.9902 113.214 97.1422 113.86 97.0049C114.828 96.7991 115.953 95.8291 117.234 94.0949C118.507 92.3249 119.649 89.8516 120.661 86.6752L121.313 87.0988C120.972 89.1957 120.365 91.1051 119.494 92.8272C118.623 94.5492 117.594 95.9675 116.407 97.0821C115.255 98.1891 114.033 98.8798 112.742 99.1543C111.415 99.4363 110.345 99.2515 109.532 98.5996C108.754 97.9402 108.267 97.1442 108.068 96.2117C107.969 95.7455 107.912 95.214 107.898 94.6173C106.798 97.0253 105.713 98.8865 104.643 100.201C103.609 101.508 102.428 102.302 101.101 102.585ZM126.928 110.196C126.031 110.387 125.189 110.303 124.401 109.946C123.62 109.625 123.131 108.998 122.933 108.065C122.605 106.523 122.807 105.093 123.539 103.775C124.307 102.45 125.381 101.154 126.761 99.8856C128.184 98.646 129.697 97.3872 131.3 96.1094C131.52 94.6756 131.709 93.0984 131.868 91.3778C132.056 89.6136 132.173 87.6957 132.22 85.624C131.469 87.7329 130.574 89.6099 129.537 91.2548C128.528 92.8563 127.288 93.8133 125.818 94.1259C124.778 94.3469 123.719 94.2159 122.641 93.7326C121.592 93.2059 120.908 92.1894 120.588 90.683C120.374 89.6788 120.288 88.4789 120.328 87.0832C120.405 85.68 120.561 84.2973 120.796 82.9353C121.032 81.5733 121.331 80.4227 121.693 79.4834C122.056 78.5442 122.434 78.0326 122.829 77.9487C122.972 77.9183 123.235 77.9187 123.616 77.95C124.034 77.9738 124.427 78.0589 124.795 78.2055C125.192 78.3086 125.413 78.4678 125.459 78.683C125.235 79.2178 125.018 79.9576 124.806 80.9022C124.595 81.8468 124.406 82.899 124.24 84.0589C124.103 85.1752 124.015 86.2622 123.977 87.3198C123.94 88.3773 123.997 89.2648 124.15 89.9821C124.287 90.6277 124.541 91.1172 124.912 91.4508C125.282 91.7843 125.826 91.8748 126.544 91.7224C127.225 91.5775 127.91 91.0946 128.597 90.2737C129.313 89.4093 129.973 88.3694 130.577 87.154C131.217 85.9309 131.769 84.6514 132.235 83.3153C132.259 82.8979 132.265 82.4844 132.253 82.0746C132.269 81.6213 132.267 81.1719 132.247 80.7263C132.248 80.2013 132.377 79.5741 132.634 78.8446C132.92 78.0717 133.511 77.59 134.408 77.3994C134.73 77.3308 135.119 77.3045 135.572 77.3206C135.694 77.8945 135.743 79.0086 135.72 80.6629C135.725 82.2737 135.626 84.1878 135.422 86.4052C135.255 88.615 134.973 90.9053 134.577 93.276C136.126 92.2722 137.551 90.8635 138.852 89.0499C140.146 87.2005 141.032 84.9317 141.51 82.2436L142.324 82.6329C142.152 84.4688 141.647 86.1505 140.81 87.6779C140 89.1619 139.014 90.515 137.849 91.7372C136.677 92.9235 135.492 93.9626 134.294 94.8544C133.85 97.348 133.285 99.7172 132.6 101.962C131.951 104.199 131.146 106.057 130.186 107.536C129.269 109.042 128.183 109.929 126.928 110.196ZM126.293 108.532C126.831 108.417 127.575 107.51 128.526 105.808C129.52 104.135 130.356 101.371 131.036 97.5149C129.734 98.6165 128.535 99.6773 127.439 100.697C126.352 101.753 125.527 102.809 124.964 103.866C124.401 104.923 124.246 106.043 124.498 107.227C124.559 107.514 124.739 107.831 125.038 108.18C125.337 108.529 125.755 108.646 126.293 108.532ZM146.401 92.1124C144.859 92.4402 143.662 92.1885 142.81 91.3574C141.967 90.5621 141.4 89.483 141.11 88.1201C140.874 87.0083 140.809 85.8225 140.916 84.5627C141.023 83.3029 141.253 82.092 141.606 80.9299C141.995 79.7602 142.479 78.7763 143.059 77.9783C143.675 77.1726 144.36 76.6898 145.113 76.5297C145.436 76.461 145.831 76.4707 146.3 76.5585C146.038 76.914 145.758 77.5359 145.459 78.424C145.189 79.2687 144.963 80.2351 144.782 81.3231C144.593 82.3754 144.459 83.4162 144.377 84.4455C144.332 85.4672 144.382 86.3188 144.527 87.0003C144.756 88.0762 145.103 88.8272 145.568 89.253C146.026 89.6431 146.542 89.7771 147.115 89.6551C147.869 89.495 148.681 88.9099 149.554 87.8998C150.419 86.8538 151.22 85.5964 151.957 84.1277C150.777 83.5162 149.76 82.608 148.904 81.4029C148.076 80.1544 147.514 78.8308 147.216 77.432C146.965 76.2485 146.926 75.0947 147.099 73.9707C147.308 72.8392 147.743 71.8847 148.402 71.1072C149.054 70.2939 149.936 69.7691 151.048 69.5328C152.518 69.2203 153.588 69.4051 154.258 70.0874C154.928 70.7697 155.389 71.7027 155.64 72.8862C155.938 74.285 155.929 75.9176 155.613 77.7839C155.29 79.6145 154.776 81.4293 154.071 83.2285C154.793 83.4499 155.513 83.4844 156.23 83.3319C157.055 83.1566 158.002 82.6741 159.071 81.8846C160.133 81.0591 160.83 79.8426 161.163 78.2349L161.923 78.6356C161.564 80.4738 160.797 81.8925 159.623 82.8919C158.476 83.8478 157.311 84.4515 156.128 84.7031C155.159 84.9089 154.261 84.9126 153.431 84.714C152.555 86.5872 151.496 88.218 150.254 89.6065C149.048 90.9874 147.764 91.8227 146.401 92.1124ZM152.628 82.5231C153.243 81.0055 153.684 79.4684 153.953 77.9118C154.25 76.3117 154.262 74.8661 153.987 73.575C153.766 72.5349 153.445 71.816 153.023 71.4184C152.629 70.9772 152.199 70.8062 151.733 70.9053C151.016 71.0578 150.391 71.7341 149.859 72.9343C149.327 74.1345 149.229 75.5236 149.564 77.1017C149.785 78.1418 150.153 79.1693 150.669 80.1843C151.213 81.1558 151.866 81.9354 152.628 82.5231ZM167.487 101.575C166.59 101.766 165.748 101.682 164.96 101.325C164.179 101.004 163.69 100.377 163.491 99.4442C163.164 97.902 163.366 96.4721 164.098 95.1544C164.866 93.8292 165.94 92.5325 167.319 91.2646C168.743 90.0249 170.256 88.7662 171.859 87.4884C172.079 86.0546 172.268 84.4774 172.427 82.7567C172.615 80.9926 172.732 79.0746 172.779 77.0029C172.027 79.1119 171.133 80.9889 170.096 82.6338C169.087 84.2353 167.847 85.1923 166.376 85.5048C165.336 85.7259 164.278 85.5948 163.2 85.1116C162.151 84.5849 161.466 83.5684 161.146 82.062C160.933 81.0578 160.846 79.8578 160.887 78.4622C160.964 77.059 161.12 75.6763 161.355 74.3143C161.59 72.9523 161.889 71.8016 162.252 70.8624C162.615 69.9231 162.993 69.4116 163.388 69.3277C163.531 69.2972 163.794 69.2977 164.175 69.329C164.592 69.3528 164.985 69.4379 165.354 69.5845C165.751 69.6876 165.972 69.8467 166.018 70.0619C165.794 70.5968 165.576 71.3365 165.365 72.2812C165.153 73.2258 164.965 74.278 164.799 75.4378C164.661 76.5542 164.574 77.6411 164.536 78.6987C164.498 79.7563 164.556 80.6438 164.708 81.3611C164.846 82.0067 165.1 82.4962 165.47 82.8297C165.841 83.1633 166.385 83.2538 167.103 83.1013C167.784 82.9565 168.469 82.4736 169.156 81.6527C169.872 80.7883 170.532 79.7484 171.136 78.5329C171.776 77.3099 172.328 76.0303 172.794 74.6943C172.818 74.2769 172.823 73.8633 172.811 73.4536C172.827 73.0003 172.826 72.5509 172.806 72.1052C172.807 71.5803 172.936 70.953 173.193 70.2236C173.479 69.4507 174.07 68.9689 174.966 68.7783C175.289 68.7097 175.677 68.6835 176.13 68.6996C176.252 69.2734 176.302 70.3875 176.279 72.0418C176.284 73.6527 176.184 75.5668 175.981 77.7842C175.813 79.994 175.532 82.2843 175.136 84.655C176.685 83.6511 178.109 82.2424 179.411 80.4289C180.705 78.5795 181.591 76.3107 182.069 73.6225L182.883 74.0119C182.71 75.8478 182.206 77.5294 181.368 79.0569C180.559 80.5409 179.572 81.894 178.408 83.1162C177.235 84.3025 176.05 85.3416 174.853 86.2334C174.408 88.7269 173.844 91.0961 173.159 93.3409C172.51 95.5781 171.705 97.436 170.745 98.9146C169.828 100.421 168.742 101.308 167.487 101.575ZM166.852 99.9108C167.39 99.7964 168.134 98.8885 169.084 97.1871C170.078 95.5139 170.915 92.7495 171.595 88.8939C170.292 89.9955 169.093 91.0563 167.998 92.0763C166.91 93.1321 166.085 94.1884 165.523 95.2451C164.96 96.3019 164.805 97.422 165.056 98.6056C165.117 98.8925 165.297 99.2104 165.596 99.5591C165.895 99.9079 166.314 100.025 166.852 99.9108ZM186.959 83.4914C185.417 83.8192 184.22 83.5675 183.369 82.7364C182.525 81.9411 181.959 80.862 181.669 79.4991C181.432 78.3873 181.368 77.2015 181.475 75.9417C181.582 74.6819 181.812 73.471 182.165 72.3089C182.553 71.1392 183.038 70.1553 183.618 69.3573C184.234 68.5516 184.918 68.0687 185.671 67.9086C185.994 67.84 186.39 67.8496 186.858 67.9375C186.597 68.293 186.316 68.9149 186.018 69.803C185.748 70.6477 185.522 71.614 185.341 72.7021C185.152 73.7543 185.017 74.7951 184.936 75.8245C184.891 76.8462 184.941 77.6978 185.086 78.3792C185.314 79.4552 185.661 80.2061 186.127 80.632C186.585 81.022 187.1 81.156 187.674 81.0341C188.427 80.874 189.24 80.2889 190.113 79.2788C190.977 78.2328 191.778 76.9754 192.516 75.5067C191.336 74.8952 190.318 73.987 189.463 72.7819C188.635 71.5334 188.072 70.2097 187.775 68.811C187.523 67.6274 187.484 66.4737 187.658 65.3497C187.867 64.2181 188.302 63.2636 188.961 62.4862C189.613 61.6729 190.495 61.1481 191.606 60.9118C193.077 60.5992 194.147 60.7841 194.817 61.4664C195.487 62.1487 195.947 63.0817 196.199 64.2652C196.496 65.664 196.487 67.2965 196.172 69.1629C195.849 70.9934 195.335 72.8083 194.63 74.6074C195.352 74.8289 196.071 74.8634 196.789 74.7109C197.614 74.5355 198.561 74.0531 199.63 73.2635C200.691 72.4381 201.389 71.2216 201.722 69.6139L202.482 70.0146C202.123 71.8528 201.356 73.2715 200.181 74.2709C199.035 75.2268 197.87 75.8305 196.687 76.0821C195.718 76.2879 194.819 76.2916 193.99 76.093C193.114 77.9661 192.054 79.597 190.813 80.9855C189.607 82.3664 188.322 83.2017 186.959 83.4914ZM193.187 73.9021C193.801 72.3845 194.243 70.8474 194.512 69.2908C194.809 67.6907 194.821 66.2451 194.546 64.9539C194.325 63.9138 194.004 63.195 193.582 62.7973C193.188 62.3562 192.758 62.1852 192.292 62.2843C191.574 62.4368 190.95 63.1131 190.418 64.3133C189.886 65.5135 189.787 66.9026 190.123 68.4807C190.344 69.5208 190.712 70.5483 191.228 71.5633C191.772 72.5348 192.425 73.3144 193.187 73.9021Z" fill="black"/>
<path d="M78.2121 169.487C77.2665 169.688 76.3215 169.612 75.3768 169.26C74.4322 168.907 73.8715 168.315 73.6946 167.483C73.6062 167.067 73.5922 166.536 73.6527 165.891C73.7212 165.283 73.7788 164.717 73.8256 164.193C74.2481 160.23 74.6471 156.528 75.0228 153.088C75.3985 149.648 75.7942 146.303 76.2101 143.052C76.626 139.801 77.0986 136.538 77.6279 133.263C78.1951 129.98 78.8665 126.537 79.6421 122.932C78.2611 123.503 77.0596 124.173 76.0375 124.944C75.0452 125.669 74.2528 126.311 73.6605 126.872C73.0601 127.395 72.6464 127.681 72.4195 127.729C72.1926 127.777 71.7931 127.664 71.221 127.391C70.6867 127.109 70.3915 126.836 70.3352 126.571C71.2301 125.946 72.2872 125.247 73.5065 124.474C74.7635 123.693 76.1312 122.967 77.6096 122.297C79.0879 121.627 80.6213 121.123 82.2099 120.786C83.874 120.432 85.6053 120.301 87.4038 120.393C89.24 120.477 90.9773 120.839 92.6155 121.479C94.2456 122.082 95.6404 122.971 96.7997 124.148C97.959 125.324 98.7316 126.821 99.1175 128.636C99.5355 130.603 99.4623 132.397 98.8979 134.019C98.3255 135.604 97.4252 137.04 96.197 138.329C94.9607 139.58 93.5748 140.685 92.0393 141.644C90.4957 142.565 88.9281 143.372 87.3362 144.067C85.7742 144.715 84.3623 145.232 83.1005 145.619C81.8306 145.968 80.8931 146.207 80.288 146.336L79.7207 146.456C79.414 150.593 79.1332 154.665 78.8781 158.672C78.6609 162.672 78.4388 166.277 78.2121 169.487ZM79.7546 145.5C81.8107 144.945 83.8375 144.158 85.8349 143.141C87.8701 142.115 89.664 140.884 91.2166 139.447C92.761 137.972 93.9129 136.324 94.672 134.502C95.4232 132.643 95.5696 130.635 95.1114 128.479C94.6773 126.437 93.8319 124.877 92.5752 123.801C91.3563 122.716 89.8883 122.039 88.1711 121.772C86.4838 121.458 84.7513 121.491 82.9737 121.869C82.1611 124.927 81.503 128.526 80.9992 132.665C80.4955 136.804 80.0806 141.083 79.7546 145.5ZM101.113 162.248C99.9408 162.497 98.873 162.309 97.91 161.683C96.9171 161.104 96.2518 160.02 95.9142 158.431C95.6248 157.069 95.6179 155.549 95.8934 153.87C96.1609 152.153 96.6634 150.425 97.4008 148.687C98.1302 146.911 99.0241 145.259 100.083 143.729C101.171 142.154 102.372 140.831 103.686 139.761C105.038 138.683 106.452 137.987 107.927 137.674C109.402 137.36 110.716 137.496 111.868 138.081C113.012 138.629 113.721 139.546 113.994 140.831C114.195 141.777 114.067 142.476 113.61 142.929C113.191 143.374 112.565 143.685 111.733 143.862C111.777 143.141 111.731 142.459 111.594 141.816C111.409 140.946 111.045 140.253 110.5 139.736C109.947 139.181 109.16 139.013 108.139 139.23C107.08 139.455 106.083 140.062 105.147 141.052C104.203 142.004 103.353 143.212 102.597 144.677C101.833 146.105 101.206 147.621 100.718 149.227C100.229 150.833 99.9062 152.384 99.7498 153.88C99.5934 155.376 99.6318 156.672 99.8649 157.769C100.178 159.244 100.846 159.873 101.867 159.656C102.737 159.471 103.598 158.873 104.45 157.862C105.295 156.813 106.114 155.552 106.907 154.078C107.731 152.559 108.49 151.014 109.184 149.444C109.878 147.873 110.482 146.44 110.997 145.145C111.1 144.886 111.171 144.752 111.209 144.744C111.557 144.71 112.043 144.764 112.667 144.909C113.282 145.015 113.634 145.276 113.723 145.692C113.795 146.032 113.725 146.541 113.514 147.219C113.294 147.859 113.056 148.601 112.801 149.446C112.546 150.291 112.332 151.146 112.161 152.013C111.981 152.842 111.964 153.597 112.108 154.277C112.229 154.845 112.501 155.38 112.924 155.883C113.339 156.348 113.887 156.508 114.568 156.364C115.589 156.146 116.775 155.124 118.126 153.295C119.468 151.428 120.673 148.82 121.74 145.47L122.428 145.917C122.068 148.128 121.428 150.142 120.51 151.958C119.591 153.774 118.506 155.27 117.254 156.445C116.039 157.612 114.751 158.341 113.389 158.63C111.99 158.928 110.862 158.733 110.004 158.045C109.184 157.35 108.67 156.51 108.461 155.527C108.356 155.035 108.296 154.475 108.281 153.846C107.121 156.385 105.977 158.348 104.848 159.734C103.758 161.112 102.513 161.95 101.113 162.248ZM127.604 155.609C125.977 155.954 124.684 155.636 123.724 154.654C122.811 153.702 122.177 152.394 121.823 150.73C121.437 148.915 121.319 146.686 121.469 144.045C121.62 141.405 121.95 138.587 122.46 135.593C123.007 132.591 123.666 129.644 124.435 126.753C125.196 123.824 126.009 121.141 126.875 118.704C127.74 116.267 128.585 114.289 129.408 112.769C130.27 111.242 131.022 110.41 131.665 110.274C132.081 110.185 132.473 110.359 132.843 110.794C133.204 111.192 133.532 111.715 133.828 112.364C134.116 112.974 134.317 113.545 134.429 114.074C134.646 115.095 134.667 116.494 134.491 118.271C134.345 120.002 134.016 121.989 133.505 124.232C133.023 126.43 132.361 128.705 131.517 131.059C130.703 133.366 129.74 135.627 128.63 137.839C127.556 140.044 126.333 142.004 124.958 143.719C124.948 144.788 124.972 145.831 125.03 146.846C125.117 147.816 125.253 148.736 125.438 149.606C126.057 152.518 127.199 153.797 128.863 153.444C129.884 153.227 130.79 152.56 131.58 151.443C132.409 150.318 133.113 148.983 133.693 147.436C134.304 145.844 134.774 144.242 135.103 142.63L136.051 142.903C135.221 146.439 134.118 149.342 132.743 151.611C131.359 153.842 129.646 155.175 127.604 155.609ZM125.058 141.682C126.101 140.076 127.065 138.29 127.951 136.323C128.83 134.318 129.602 132.276 130.267 130.198C130.969 128.111 131.552 126.11 132.014 124.193C132.477 122.277 132.79 120.589 132.954 119.131C133.111 117.635 133.109 116.509 132.948 115.753C132.867 115.374 132.758 115.141 132.621 115.051C132.521 114.954 132.433 114.913 132.358 114.929C132.055 114.994 131.63 115.598 131.083 116.742C130.565 117.84 129.988 119.307 129.35 121.143C128.712 122.978 128.104 125.044 127.525 127.341C126.946 129.639 126.425 132.022 125.961 134.493C125.536 136.955 125.235 139.351 125.058 141.682ZM142.598 153.252C140.291 153.742 138.415 153.469 136.969 152.432C135.569 151.425 134.672 149.995 134.278 148.142C133.916 146.44 133.95 144.555 134.381 142.487C134.849 140.411 135.605 138.392 136.651 136.431C137.735 134.461 139.019 132.785 140.504 131.402C141.981 129.981 143.551 129.094 145.215 128.74C146.085 128.555 146.928 128.613 147.743 128.914C148.596 129.207 149.171 130.054 149.468 131.453C149.774 132.89 149.628 134.344 149.032 135.815C148.465 137.24 147.586 138.593 146.396 139.874C145.243 141.147 143.903 142.281 142.376 143.278C140.878 144.229 139.332 144.953 137.738 145.45C137.743 145.844 137.762 146.215 137.797 146.564C137.831 146.912 137.881 147.238 137.945 147.54C138.194 148.713 138.73 149.745 139.552 150.638C140.404 151.485 141.7 151.723 143.44 151.353C145.066 151.008 146.577 150.212 147.973 148.967C149.36 147.683 150.574 146.141 151.614 144.338C152.654 142.536 153.454 140.627 154.014 138.61L154.803 138.976C154.264 141.463 153.377 143.707 152.143 145.709C150.946 147.702 149.517 149.35 147.857 150.652C146.242 151.983 144.489 152.85 142.598 153.252ZM137.792 144.312C138.741 143.754 139.79 143.017 140.94 142.101C142.081 141.147 143.141 140.091 144.121 138.934C145.138 137.769 145.908 136.558 146.432 135.3C146.993 134.035 147.145 132.797 146.888 131.586C146.799 131.17 146.655 130.865 146.456 130.67C146.256 130.475 145.91 130.43 145.419 130.535C144.511 130.728 143.623 131.292 142.755 132.228C141.878 133.126 141.088 134.242 140.383 135.578C139.679 136.914 139.093 138.343 138.626 139.865C138.159 141.387 137.881 142.87 137.792 144.312ZM160.21 149.627C156.844 150.342 154.763 148.828 153.967 145.084C153.613 143.419 153.482 141.313 153.572 138.763C153.693 136.168 153.952 133.484 154.351 130.712C153.957 130.716 153.586 130.736 153.237 130.771C152.881 130.767 152.539 130.741 152.212 130.692L151.995 129.671C152.306 129.644 152.673 129.606 153.097 129.555C153.521 129.504 154.002 129.442 154.54 129.367C154.9 127.156 155.333 125.008 155.839 122.924C156.336 120.802 156.863 118.911 157.42 117.251C158.006 115.546 158.604 114.173 159.213 113.135C159.852 112.05 160.455 111.447 161.023 111.327C161.325 111.263 161.614 111.32 161.889 111.498C162.194 111.631 162.391 111.906 162.479 112.322C162.616 112.965 162.444 114.108 161.963 115.752C161.475 117.358 160.857 119.288 160.111 121.542C159.364 123.796 158.692 126.211 158.093 128.79L160.192 128.343C161.441 128.078 162.741 127.782 164.095 127.455C165.486 127.119 166.866 126.727 168.233 126.279L168.45 127.3C164.424 128.63 161.144 129.564 158.61 130.103L157.759 130.284C157.315 132.473 157.016 134.691 156.861 136.938C156.706 139.185 156.841 141.31 157.267 143.315C157.613 144.941 158.108 146.061 158.752 146.675C159.389 147.252 160.274 147.419 161.409 147.178C163.376 146.76 165.12 145.48 166.641 143.338C168.162 141.197 169.324 138.479 170.126 135.186L170.984 135.596C170.527 137.907 169.779 140.062 168.741 142.062C167.742 144.053 166.514 145.717 165.059 147.054C163.604 148.392 161.988 149.249 160.21 149.627ZM177.583 146.231C175.805 146.609 174.302 146.513 173.074 145.944C171.892 145.404 170.973 144.612 170.316 143.565C169.621 142.527 169.152 141.441 168.911 140.306C168.67 139.171 168.636 138.269 168.81 137.6C168.984 136.93 169.247 136.4 169.599 136.009C169.988 135.61 170.356 135.295 170.702 135.063C171.086 134.823 171.338 134.612 171.457 134.428C172.326 132.939 173.089 131.413 173.745 129.851C174.401 128.288 174.928 126.674 175.325 125.008L175.18 124.328C174.883 122.928 174.901 121.897 175.234 121.233C175.597 120.523 176.043 120.112 176.573 119.999C177.178 119.871 177.533 120.052 177.637 120.544C177.677 120.733 177.685 121.048 177.66 121.488C177.635 121.928 177.691 122.47 177.827 123.113C178.093 124.361 178.628 125.67 179.433 127.041C180.23 128.373 181.048 129.801 181.885 131.322C182.714 132.806 183.314 134.418 183.684 136.158C183.893 137.141 183.976 138.092 183.934 139.01C185.21 138.502 186.333 137.65 187.305 136.456C188.268 135.223 189.073 133.431 189.72 131.08L190.351 131.539C190.074 133.772 189.334 135.589 188.13 136.992C186.918 138.356 185.489 139.352 183.843 139.978C183.584 141.733 182.873 143.13 181.71 144.167C180.585 145.197 179.209 145.885 177.583 146.231ZM180.348 139.713C180.343 139.319 180.315 138.91 180.265 138.486C180.214 138.062 180.129 137.566 180.008 136.999C179.63 135.221 179.029 133.511 178.206 131.867C177.412 130.178 176.699 128.59 176.067 127.104C175.502 128.726 174.869 130.303 174.167 131.836C173.495 133.323 172.816 134.594 172.131 135.649C172.956 136.738 174.067 137.688 175.465 138.498C176.9 139.3 178.528 139.705 180.348 139.713ZM177.274 144.221C177.728 144.124 178.301 143.845 178.993 143.381C179.685 142.918 180.106 142.018 180.257 140.681C178.604 140.716 177.053 140.394 175.604 139.714C174.193 139.025 173.084 138.273 172.278 137.456C171.454 137.67 171.179 138.421 171.452 139.707C171.742 141.068 172.408 142.251 173.451 143.255C174.525 144.212 175.799 144.534 177.274 144.221Z" fill="black"/>
</svg>
